<svg xmlns="http://www.w.org/2000/svg" viewBox="0 0 841.9 595."><g fill="#61DAFB"><path d="M666. 296.5c0-2.5-40.7-6.-10.1-82.4 14.4-6.6 8-114.2-20.2-10.4-6.5-.8-14.1-5.6-22.4-5.6v22.c4.6 0 8..9 11.4 2.6 1.6 7.8 19.5 7.5 14.9 75.7-1.1 9.4-2.9 19.-5.1 29.4-19.6-4.8-41-8.5-6.5-10.9-1.5-18.5-27.5-5.-41.6-50 2.6-0. 6.2-46.9 84-46.9V78c-27.5 0-6.5 19.6-99.9 5.6-6.4-.8-72.4-5.2-99.9-5.2v22.c20.7 0 51.4 16.5 84 46.6-14 14.7-28 1.4-41. 49.9-22.6 2.4-44 6.1-6.6 11-2.-10-4-19.7-5.2-29-4.7-8.2 1.1-67.9 14.6-75.8 -1.8 6.9-2.6 11.5-2.6V78.5c-8.4 0-16 1.8-22.6 5.6-28.1 16.2-4.4 66.7-19.9 10.1-62.2 19.2-102.7 49.9-102.7 82. 0 2.5 40.7 6. 10.1 82.4-14.4 6.6-8 114.2 20.2 10.4 6.5 .8 14.1 5.6 22.5 5.6 27.5 0 6.5-19.6 99.9-5.6 6.4 .8 72.4 5.2 99.9 5.2 8.4 0 16-1.8 22.6-5.6 28.1-16.2 4.4-66.7 19.9-10.1 62-19.1 102.5-49.9 102.5-82.zm-10.2-66.7c-.7 12.9-8. 26.2-1.5 9.5-4.1-8-8.4-16-1.1-24-4.6-8-9.5-15.8-14.4-2.4 14.2 2.1 27.9 4.7 41 7.9zm-45.8 106.5c-7.8 1.5-15.8 26.-24.1 8.2-14.9 1.-0 2-45.2 2-15.1 0-0.2-.7-45-1.9-8.-11.9-16.4-24.6-24.2-8-7.6-1.1-14.5-26.4-20.8-9.8 6.2-1.4 1.2-26.8 20.7-9.9 7.8-1.5 15.8-26. 24.1-8.2 14.9-1. 0-2 45.2-2 15.1 0 0.2.7 45 1.9 8. 11.9 16.4 24.6 24.2 8 7.6 1.1 14.5 26.4 20.8 9.8-6. 1.4-1.2 26.8-20.7 9.9zm2.-1c5.4 1.4 10 26.8 1.8 9.8-1.1 .2-26.9 5.9-41.2 8 4.9-7.7 9.8-15.6 14.4-2.7 4.6-8 8.9-16.1 1-24.1zM421.2 40c-9.-9.6-18.6-20.-27.8-2 9 .4 18.2.7 27.5.7 9.4 0 18.7-.2 27.8-.7-9 11.7-18. 22.4-27.5 2zm-74.4-58.9c-14.2-2.1-27.9-4.7-41-7.9 .7-12.9 8.-26.2 1.5-9.5 4.1 8 8.4 16 1.1 24 4.7 8 9.5 15.8 14.4 2.4zM420.7 16c9. 9.6 18.6 20. 27.8 2-9-.4-18.2-.7-27.5-.7-9.4 0-18.7.2-27.8.7 9-11.7 18.-22.4 27.5-2zm-74 58.9c-4.9 7.7-9.8 15.6-14.4 2.7-4.6 8-8.9 16-1 24-5.4-1.4-10-26.8-1.8-9.8 1.1-.1 26.9-5.8 41.2-7.9zm-90.5 125.2c-5.4-15.1-58.-4.9-58.-50.6 0-15.7 22.9-5.6 58.-50.6 8.6-.7 18-7 27.7-10.1 5.7 19.6 1.2 40 22.5 60.9-9.2 20.8-16.6 41.1-22.2 60.6-9.9-.1-19.-6.5-28-10.2zM10 490c-1.6-7.8-19.5-7.5-14.9-75.7 1.1-9.4 2.9-19. 5.1-29.4 19.6 4.8 41 8.5 6.5 10.9 1.5 18.5 27.5 5. 41.6 50-2.6 0.-6.2 46.9-84 46.9-4.5-.1-8.-1-11.-2.7zm27.2-76.2c4.7 8.2-1.1 67.9-14.6 75.8- 1.8-6.9 2.6-11.5 2.6-20.7 0-51.4-16.5-84-46.6 14-14.7 28-1.4 41.-49.9 22.6-2.4 44-6.1 6.6-11 2. 10.1 4.1 19.8 5.2 29.1zm8.5-66.7c-8.6 .7-18 7-27.7 10.1-5.7-19.6-1.2-40-22.5-60.9 9.2-20.8 16.6-41.1 22.2-60.6 9.9 .1 19. 6.5 28.1 10.2 5.4 15.1 58. 4.9 58. 50.6-.1 15.7-2 5.6-58.4 50.6zM20.8 78.4z"/><circle cx="420.9" cy="296.5" r="45.7"/><path d="M520.5 78.1z"/></g></svg>